<svg width="24" height="24" viewBox="0 0 24 24" fill="none" xmlns="http://www.w3.org/2000/svg">
<path d="M17.7151 13.913C18.3188 13.913 18.8081 13.4236 18.8081 12.8199C18.8081 12.2163 18.3188 11.7269 17.7151 11.7269C17.1115 11.7269 16.6221 12.2163 16.6221 12.8199C16.6221 13.4236 17.1115 13.913 17.7151 13.913Z" fill="#2A2D32"/>
<path d="M17.7151 18.2851C18.3188 18.2851 18.8081 17.7957 18.8081 17.192C18.8081 16.5884 18.3188 16.099 17.7151 16.099C17.1115 16.099 16.6221 16.5884 16.6221 17.192C16.6221 17.7957 17.1115 18.2851 17.7151 18.2851Z" fill="#2A2D32"/>
<path d="M13.343 12.8199C13.343 13.4236 12.8537 13.913 12.25 13.913C11.6463 13.913 11.157 13.4236 11.157 12.8199C11.157 12.2163 11.6463 11.7269 12.25 11.7269C12.8537 11.7269 13.343 12.2163 13.343 12.8199Z" fill="#2A2D32"/>
<path d="M13.343 17.192C13.343 17.7957 12.8537 18.2851 12.25 18.2851C11.6463 18.2851 11.157 17.7957 11.157 17.192C11.157 16.5884 11.6463 16.099 12.25 16.099C12.8537 16.099 13.343 16.5884 13.343 17.192Z" fill="#2A2D32"/>
<path d="M6.78488 13.913C7.38854 13.913 7.87791 13.4236 7.87791 12.8199C7.87791 12.2163 7.38854 11.7269 6.78488 11.7269C6.18122 11.7269 5.69186 12.2163 5.69186 12.8199C5.69186 13.4236 6.18122 13.913 6.78488 13.913Z" fill="#2A2D32"/>
<path d="M6.78488 18.2851C7.38854 18.2851 7.87791 17.7957 7.87791 17.192C7.87791 16.5884 7.38854 16.099 6.78488 16.099C6.18122 16.099 5.69186 16.5884 5.69186 17.192C5.69186 17.7957 6.18122 18.2851 6.78488 18.2851Z" fill="#2A2D32"/>
<path fill-rule="evenodd" clip-rule="evenodd" d="M6.78488 0.523438C7.23763 0.523438 7.60465 0.89046 7.60465 1.3432V2.17687C8.32823 2.16296 9.1254 2.16296 10.0022 2.16297H14.4977C15.3745 2.16296 16.1718 2.16296 16.8953 2.17687V1.3432C16.8953 0.89046 17.2624 0.523438 17.7151 0.523438C18.1679 0.523438 18.5349 0.89046 18.5349 1.3432V2.24723C18.819 2.26889 19.0881 2.29612 19.3427 2.33035C20.6241 2.50264 21.6614 2.86565 22.4793 3.68363C23.2973 4.50161 23.6603 5.53883 23.8326 6.82032C24 8.0655 24 9.65652 24 11.6652V13.9746C24 15.9833 24 17.5744 23.8326 18.8196C23.6603 20.1011 23.2973 21.1383 22.4793 21.9563C21.6614 22.7742 20.6241 23.1373 19.3427 23.3095C18.0975 23.477 16.5064 23.4769 14.4978 23.4769H10.0023C7.9936 23.4769 6.40253 23.477 5.15735 23.3095C3.87586 23.1373 2.83864 22.7742 2.02066 21.9563C1.20268 21.1383 0.839671 20.1011 0.66738 18.8196C0.49997 17.5744 0.499983 15.9833 0.5 13.9746V11.6653C0.499983 9.65655 0.49997 8.0655 0.66738 6.82032C0.839671 5.53883 1.20268 4.50161 2.02066 3.68363C2.83864 2.86565 3.87586 2.50264 5.15735 2.33035C5.41194 2.29612 5.68099 2.26889 5.96512 2.24723V1.3432C5.96512 0.89046 6.33214 0.523438 6.78488 0.523438ZM5.37581 3.95527C4.27613 4.10311 3.64257 4.38038 3.17999 4.84296C2.71741 5.30554 2.44014 5.9391 2.2923 7.03878C2.26726 7.22502 2.24632 7.42108 2.22882 7.62809H22.2712C22.2537 7.42108 22.2327 7.22502 22.2077 7.03878C22.0599 5.9391 21.7826 5.30554 21.32 4.84296C20.8574 4.38038 20.2239 4.10311 19.1242 3.95527C18.0009 3.80425 16.5202 3.80251 14.436 3.80251H10.064C7.97975 3.80251 6.49907 3.80425 5.37581 3.95527ZM2.13954 11.7269C2.13954 10.7935 2.13988 9.98107 2.15384 9.26762H22.3462C22.3601 9.98107 22.3605 10.7935 22.3605 11.7269V13.913C22.3605 15.9972 22.3587 17.4778 22.2077 18.6011C22.0599 19.7008 21.7826 20.3344 21.32 20.7969C20.8574 21.2595 20.2239 21.5368 19.1242 21.6846C18.0009 21.8356 16.5202 21.8374 14.436 21.8374H10.064C7.97975 21.8374 6.49907 21.8356 5.37581 21.6846C4.27613 21.5368 3.64257 21.2595 3.17999 20.7969C2.71741 20.3344 2.44014 19.7008 2.2923 18.6011C2.14128 17.4778 2.13954 15.9972 2.13954 13.913V11.7269Z" fill="#2A2D32"/>
</svg>
