<svg width="25" height="22" viewBox="0 0 25 22" fill="none" xmlns="http://www.w3.org/2000/svg">
<path fill-rule="evenodd" clip-rule="evenodd" d="M5.48473 2.49006C3.59426 3.3542 2.2093 5.40959 2.2093 7.86058C2.2093 10.3646 3.23399 12.2947 4.70293 13.9487C5.91362 15.312 7.37919 16.4419 8.80849 17.5438C9.14797 17.8055 9.4854 18.0656 9.81689 18.327C10.4163 18.7995 10.951 19.2143 11.4664 19.5154C11.9821 19.8168 12.3972 19.9544 12.75 19.9544C13.1028 19.9544 13.5179 19.8168 14.0336 19.5154C14.549 19.2143 15.0837 18.7995 15.6831 18.327C16.0146 18.0656 16.352 17.8055 16.6915 17.5438C18.1208 16.4419 19.5864 15.312 20.7971 13.9487C22.266 12.2947 23.2907 10.3646 23.2907 7.86058C23.2907 5.40959 21.9057 3.3542 20.0153 2.49006C18.1787 1.65055 15.7109 1.87287 13.3658 4.30938C13.2046 4.47677 12.9823 4.57135 12.75 4.57135C12.5177 4.57135 12.2953 4.47677 12.1342 4.30938C9.7891 1.87287 7.32133 1.65055 5.48473 2.49006ZM12.75 2.52951C10.1153 0.172302 7.1651 -0.157448 4.77413 0.935471C2.24886 2.08978 0.5 4.77009 0.5 7.86058C0.5 10.898 1.76545 13.2152 3.42486 15.0838C4.75374 16.5801 6.38025 17.8325 7.81675 18.9386C8.14239 19.1893 8.45826 19.4325 8.75869 19.6693C9.3424 20.1295 9.96902 20.6202 10.6041 20.9912C11.2388 21.3622 11.9633 21.6637 12.75 21.6637C13.5367 21.6637 14.2612 21.3622 14.8959 20.9912C15.531 20.6202 16.1576 20.1295 16.7413 19.6693C17.0417 19.4325 17.3576 19.1893 17.6832 18.9385C19.1197 17.8325 20.7463 16.5801 22.0751 15.0838C23.7345 13.2152 25 10.898 25 7.86058C25 4.77009 23.2511 2.08978 20.7259 0.935471C18.3349 -0.157448 15.3847 0.172302 12.75 2.52951Z" fill="#2A2D32"/>
</svg>
