<svg width="20" height="17" viewBox="0 0 20 17" fill="none" xmlns="http://www.w3.org/2000/svg">
<path d="M2.22865 6.40836C2.22865 4.64659 3.22415 3.16918 4.58302 2.54803C5.90317 1.94459 7.677 2.10439 9.36268 3.85575C9.47849 3.97608 9.63829 4.04406 9.80529 4.04406C9.9723 4.04406 10.1321 3.97608 10.2479 3.85575C11.9336 2.10439 13.7074 1.94459 15.0276 2.54803C16.3864 3.16918 17.3819 4.64659 17.3819 6.40836C17.3819 8.20824 16.6454 9.59558 15.5895 10.7845C14.7193 11.7644 13.6658 12.5766 12.6384 13.3686C12.3944 13.5568 12.1519 13.7438 11.9136 13.9316C11.4827 14.2713 11.0984 14.5694 10.7279 14.7859C10.3573 15.0025 10.0589 15.1014 9.80529 15.1014C9.5517 15.1014 9.25334 15.0025 8.88267 14.7859C8.5122 14.5694 8.12785 14.2713 7.69698 13.9316C7.4587 13.7438 7.21616 13.5568 6.97214 13.3686C5.94476 12.5766 4.89131 11.7644 4.02106 10.7845C2.96519 9.59558 2.22865 8.20824 2.22865 6.40836Z" stroke="#D22366"/>
</svg>
