<svg width="40" height="40" viewBox="0 0 40 40" fill="none" xmlns="http://www.w3.org/2000/svg">
<rect width="40" height="40" rx="20" fill="#F7F7F7"/>
<path d="M18.5932 14.4641L18.978 14.7364C19.2768 14.9479 19.6339 15.0615 20.0001 15.0615C20.3662 15.0615 20.7233 14.9479 21.0221 14.7364L21.4069 14.4641C21.9561 14.0754 22.6124 13.8667 23.2852 13.8667H23.7547C24.0646 13.8667 24.3776 13.8862 24.6697 13.9898C26.4964 14.6377 27.753 17.0062 27.6621 22.3787C27.6438 23.4612 27.3905 24.6575 26.4138 25.1246C26.1094 25.2702 25.7526 25.3667 25.3462 25.3667C24.8586 25.3667 24.4714 25.2277 24.1725 25.0318C23.4719 24.5726 22.9584 23.8057 22.2148 23.42C21.7671 23.1879 21.2701 23.0667 20.7658 23.0667H19.2343C18.7299 23.0667 18.233 23.1879 17.7853 23.42C17.0416 23.8057 16.5282 24.5726 15.8276 25.0318C15.5287 25.2277 15.1415 25.3667 14.6539 25.3667C14.2475 25.3667 13.8906 25.2702 13.5863 25.1246C12.6096 24.6575 12.3563 23.4612 12.338 22.3787C12.2471 17.0062 13.5037 14.6377 15.3304 13.9898C15.6224 13.8862 15.9355 13.8667 16.2453 13.8667H16.7149C17.3877 13.8667 18.044 14.0754 18.5932 14.4641Z" stroke="#444444" stroke-linecap="round"/>
<path d="M16.55 17.7002V20.0002M15.4 18.8502L17.7 18.8502" stroke="#444444" stroke-linecap="round"/>
<path d="M25.3666 18.6581C25.3666 18.9757 25.1092 19.2331 24.7916 19.2331C24.4741 19.2331 24.2166 18.9757 24.2166 18.6581C24.2166 18.3405 24.4741 18.0831 24.7916 18.0831C25.1092 18.0831 25.3666 18.3405 25.3666 18.6581Z" fill="#444444"/>
<path d="M23.0666 18.6581C23.0666 18.9757 22.8092 19.2331 22.4916 19.2331C22.1741 19.2331 21.9166 18.9757 21.9166 18.6581C21.9166 18.3405 22.1741 18.0831 22.4916 18.0831C22.8092 18.0831 23.0666 18.3405 23.0666 18.6581Z" fill="#444444"/>
<path d="M23.6416 16.9331C23.9592 16.9331 24.2166 17.1905 24.2166 17.5081C24.2166 17.8257 23.9592 18.0831 23.6416 18.0831C23.3241 18.0831 23.0666 17.8257 23.0666 17.5081C23.0666 17.1905 23.3241 16.9331 23.6416 16.9331Z" fill="#444444"/>
<path d="M23.6416 19.2331C23.9592 19.2331 24.2166 19.4905 24.2166 19.8081C24.2166 20.1257 23.9592 20.3831 23.6416 20.3831C23.3241 20.3831 23.0666 20.1257 23.0666 19.8081C23.0666 19.4905 23.3241 19.2331 23.6416 19.2331Z" fill="#444444"/>
</svg>
