<svg width="32" height="32" viewBox="0 0 32 32" fill="none" xmlns="http://www.w3.org/2000/svg">
<path fill-rule="evenodd" clip-rule="evenodd" d="M25.3333 10.6668C25.3333 11.1086 24.9752 11.4668 24.5333 11.4668L7.46666 11.4668C7.02483 11.4668 6.66666 11.1086 6.66666 10.6668C6.66666 10.225 7.02483 9.8668 7.46666 9.8668L24.5333 9.8668C24.9752 9.8668 25.3333 10.225 25.3333 10.6668Z" fill="#2A2D32"/>
<path fill-rule="evenodd" clip-rule="evenodd" d="M25.3333 15.9998C25.3333 16.4416 24.9752 16.7998 24.5333 16.7998L7.46666 16.7998C7.02483 16.7998 6.66666 16.4416 6.66666 15.9998C6.66666 15.558 7.02483 15.1998 7.46666 15.1998L24.5333 15.1998C24.9752 15.1998 25.3333 15.558 25.3333 15.9998Z" fill="#2A2D32"/>
<path fill-rule="evenodd" clip-rule="evenodd" d="M25.3333 21.3338C25.3333 21.7756 24.9752 22.1338 24.5333 22.1338L7.46666 22.1338C7.02483 22.1338 6.66666 21.7756 6.66666 21.3338C6.66666 20.892 7.02483 20.5338 7.46666 20.5338L24.5333 20.5338C24.9752 20.5338 25.3333 20.892 25.3333 21.3338Z" fill="#2A2D32"/>
</svg>
