<svg width="24" height="24" viewBox="0 0 24 24" fill="none" xmlns="http://www.w3.org/2000/svg">
<path d="M0.75 12L3.25 9.5M3.25 9.5L12 0.75L20.75 9.5M3.25 9.5V22C3.25 22.6904 3.80964 23.25 4.5 23.25H8.25M20.75 9.5L23.25 12M20.75 9.5V22C20.75 22.6904 20.1904 23.25 19.5 23.25H15.75M8.25 23.25C8.94036 23.25 9.5 22.6904 9.5 22V17C9.5 16.3096 10.0596 15.75 10.75 15.75H13.25C13.9404 15.75 14.5 16.3096 14.5 17V22C14.5 22.6904 15.0596 23.25 15.75 23.25M8.25 23.25H15.75" stroke="#2A2D32" stroke-width="1.5" stroke-linecap="round" stroke-linejoin="round"/>
</svg>
