<svg width="40" height="40" viewBox="0 0 40 40" fill="none" xmlns="http://www.w3.org/2000/svg">
<rect width="40" height="40" rx="20" fill="#F7F7F7"/>
<path d="M17.7 21.7139V23.8335C17.7 25.9506 19.4162 27.6668 21.5333 27.6668H22.2098C23.6563 27.6668 24.8755 26.6939 25.2489 25.3668" stroke="#444444"/>
<path d="M14.9619 13.1001H14.8917C14.6518 13.1001 14.5319 13.1001 14.4308 13.109C13.3206 13.2072 12.4405 14.0873 12.3423 15.1975C12.3334 15.2986 12.3334 15.4185 12.3334 15.6584V16.3472C12.3334 19.3111 14.7361 21.7138 17.7 21.7138C20.543 21.7138 22.8477 19.4092 22.8477 16.5662V15.6584C22.8477 15.4185 22.8477 15.2986 22.8387 15.1975C22.7405 14.0873 21.8605 13.2072 20.7503 13.109C20.6492 13.1001 20.5292 13.1001 20.2894 13.1001H20.2191" stroke="#444444" stroke-linecap="round"/>
<circle cx="25.3667" cy="23.0666" r="2.3" stroke="#444444"/>
<path d="M20 12.3335V13.8668" stroke="#444444" stroke-linecap="round"/>
<path d="M15.4 12.3335V13.8668" stroke="#444444" stroke-linecap="round"/>
</svg>
