<svg width="40" height="40" viewBox="0 0 40 40" fill="none" xmlns="http://www.w3.org/2000/svg">
<rect width="40" height="40" rx="20" fill="#F7F7F7"/>
<path d="M17.7 25.3669C17.7 26.6372 16.6702 27.6669 15.4 27.6669C14.1297 27.6669 13.1 26.6372 13.1 25.3669C13.1 24.0966 14.1297 23.0669 15.4 23.0669C16.6702 23.0669 17.7 24.0966 17.7 25.3669Z" stroke="#444444"/>
<path d="M26.9001 23.8332C26.9001 25.1035 25.8703 26.1332 24.6 26.1332C23.3298 26.1332 22.3 25.1035 22.3 23.8332C22.3 22.5629 23.3298 21.5332 24.6 21.5332C25.8703 21.5332 26.9001 22.5629 26.9001 23.8332Z" stroke="#444444"/>
<path d="M17.7 25.3664V16.9331" stroke="#444444"/>
<path d="M26.9 23.8332V15.3999" stroke="#444444"/>
<path d="M22.8635 13.6787L19.7969 14.701C18.7848 15.0383 18.2788 15.207 17.9894 15.6085C17.7 16.0101 17.7 16.5435 17.7 17.6103V19.9999L26.9 16.9333V16.588C26.9 14.6465 26.9 13.6757 26.2632 13.2167C25.6264 12.7578 24.7054 13.0648 22.8635 13.6787Z" stroke="#444444" stroke-linecap="round"/>
</svg>
