<svg width="23" height="24" viewBox="0 0 23 24" fill="none" xmlns="http://www.w3.org/2000/svg">
<path fill-rule="evenodd" clip-rule="evenodd" d="M11.915 0.183594C7.21034 0.183594 3.39649 3.99744 3.39649 8.70206V9.47598C3.39649 10.242 3.16974 10.9909 2.74483 11.6283L1.48233 13.522C0.0170515 15.7199 1.13567 18.7075 3.68417 19.4025C4.51471 19.629 5.35225 19.8206 6.19466 19.9773L6.19674 19.9829C7.04199 22.2383 9.3011 23.8155 11.9149 23.8155C14.5287 23.8155 16.7878 22.2383 17.633 19.9829L17.6351 19.9773C18.4776 19.8206 19.3152 19.629 20.1457 19.4025C22.6942 18.7075 23.8129 15.7199 22.3476 13.522L21.0851 11.6283C20.6602 10.9909 20.4334 10.242 20.4334 9.47598V8.70206C20.4334 3.99744 16.6196 0.183594 11.915 0.183594ZM15.6262 20.2838C13.1608 20.5784 10.669 20.5784 8.2036 20.2838C8.98505 21.4066 10.3442 22.1667 11.9149 22.1667C13.4855 22.1667 14.8447 21.4067 15.6262 20.2838ZM5.04522 8.70206C5.04522 4.90801 8.12091 1.83233 11.915 1.83233C15.709 1.83233 18.7847 4.90801 18.7847 8.70206V9.47598C18.7847 10.5675 19.1078 11.6346 19.7133 12.5428L20.9757 14.4366C21.8168 15.6981 21.1747 17.4129 19.7119 17.8119C14.6072 19.2041 9.22274 19.2041 4.11798 17.8119C2.65519 17.4129 2.01312 15.6981 2.85416 14.4366L4.11666 12.5428C4.72213 11.6346 5.04522 10.5675 5.04522 9.47598V8.70206Z" fill="#2A2D32"/>
</svg>
