<svg width="17" height="22" viewBox="0 0 17 22" fill="none" xmlns="http://www.w3.org/2000/svg">
<path fill-rule="evenodd" clip-rule="evenodd" d="M8.75 0.0888672C5.9574 0.0888672 3.69355 2.35272 3.69355 5.14532C3.69355 7.93792 5.9574 10.2018 8.75 10.2018C11.5426 10.2018 13.8065 7.93792 13.8065 5.14532C13.8065 2.35272 11.5426 0.0888672 8.75 0.0888672ZM5.29032 5.14532C5.29032 3.23459 6.83927 1.68564 8.75 1.68564C10.6607 1.68564 12.2097 3.23459 12.2097 5.14532C12.2097 7.05605 10.6607 8.605 8.75 8.605C6.83927 8.605 5.29032 7.05605 5.29032 5.14532Z" fill="#2A2D32"/>
<path fill-rule="evenodd" clip-rule="evenodd" d="M8.75 11.7985C6.5791 11.7985 4.57445 12.2997 3.0848 13.1509C1.61774 13.9892 0.5 15.269 0.5 16.855C0.5 18.441 1.61774 19.7208 3.0848 20.5591C4.57445 21.4103 6.5791 21.9114 8.75 21.9114C10.9209 21.9114 12.9255 21.4103 14.4152 20.5591C15.8823 19.7208 17 18.441 17 16.855C17 15.269 15.8823 13.9892 14.4152 13.1509C12.9255 12.2997 10.9209 11.7985 8.75 11.7985ZM2.09677 16.855C2.09677 16.0893 2.64714 15.2401 3.87703 14.5373C5.08433 13.8474 6.80549 13.3953 8.75 13.3953C10.6945 13.3953 12.4157 13.8474 13.623 14.5373C14.8529 15.2401 15.4032 16.0893 15.4032 16.855C15.4032 17.6207 14.8529 18.4699 13.623 19.1727C12.4157 19.8626 10.6945 20.3147 8.75 20.3147C6.80549 20.3147 5.08433 19.8626 3.87703 19.1727C2.64714 18.4699 2.09677 17.6207 2.09677 16.855Z" fill="#2A2D32"/>
</svg>
